<?xml version="1.0" encoding="utf-8"?>
<!-- Generator: Adobe Illustrator 23.0.3, SVG Export Plug-In . SVG Version: 6.00 Build 0)  -->
<svg version="1.1" id="Layer_1" xmlns="http://www.w3.org/2000/svg" xmlns:xlink="http://www.w3.org/1999/xlink" x="0px" y="0px"
	 viewBox="0 0 150 80" style="enable-background:new 0 0 150 80;" xml:space="preserve">
<style type="text/css">
	.st0{fill:#010101;}
</style>
<g>
	<path class="st0" d="M28.7,42.5l8.4,0.1c-1.5,9-9.4,12.3-17,12.2c-8.3-0.1-17.1-4.1-17-15.1c0.1-11,8.9-14.9,17.2-14.8
		c7.6,0.1,15.5,3.5,16.8,12.5l-8.4-0.1c-0.9-3.9-3.3-6.6-8.5-6.7c-5.9,0-8.8,3.5-8.9,9.1c0,5.5,2.9,9.2,8.7,9.2
		C25.2,49,27.7,46.3,28.7,42.5z"/>
	<path class="st0" d="M63.9,40l-0.1,14.5l-7.4-0.1l0.1-12.8c0-2.4-1.5-4.3-4.8-4.3c-3.3,0-5,1.8-5,4.2l-0.1,12.8l-7.4-0.1l0.2-28.7
		l7.4,0.1l-0.1,10c0.9-1.3,3.6-3.7,8.1-3.7C60.5,32,64,35.1,63.9,40z"/>
	<path class="st0" d="M91,40.9l-0.1,13.8l-7.4-0.1l0-3c-0.8,1.3-3.6,3.5-8.5,3.5c-5.1,0-9-2.1-9-6.4c0-4.6,2.3-8.6,17.6-7.4l0-0.5
		c0-2.1-0.5-4-4.9-4c-3.6,0-4.6,1.2-4.9,2.5l-6.6-0.1c0.7-5.4,5.2-7.2,11.5-7.2C85,32.2,91.1,33.6,91,40.9z M83.6,45.6
		c-6.9-0.4-10.3-0.1-10.3,2.9c0,1.6,1.4,2.6,3.9,2.6c2.9,0,5.2-1.3,6.4-3L83.6,45.6z"/>
	<path class="st0" d="M112.8,32.8l-0.1,6.6l-0.5,0c-0.8-0.4-2.4-0.9-4.3-0.9c-4.7,0-6.5,2.8-6.5,6.2l-0.1,10.1L94,54.8l0.2-21.8
		l7.4,0.1l0,3.8c0.9-1.5,3.4-4.4,8.1-4.3C111,32.5,112.1,32.6,112.8,32.8z"/>
	<path class="st0" d="M125.8,37.8l-0.1,8.6c0,3,1.5,3.6,6.4,3l0,5.6c-1.5,0.2-2.7,0.3-4.4,0.3c-8.1-0.1-9.4-3.5-9.3-9l0.1-8.6
		l-4.1,0l0-4.6l4.1,0l0-5.7l7.4,0.1l0,5.7l6.4,0.1l0,4.6L125.8,37.8z"/>
	<path class="st0" d="M135.5,33.3l7.4,0.1l-0.2,21.8l-7.4-0.1L135.5,33.3z M148,24.7l-5.9,6l-5.8,0l3.5-6L148,24.7z"/>
</g>
</svg>
