<?xml version="1.0" encoding="utf-8"?>
<!-- Generator: Adobe Illustrator 23.0.3, SVG Export Plug-In . SVG Version: 6.00 Build 0)  -->
<svg version="1.1" id="Layer_1" xmlns="http://www.w3.org/2000/svg" xmlns:xlink="http://www.w3.org/1999/xlink" x="0px" y="0px"
	 viewBox="0 0 100 100" style="enable-background:new 0 0 100 100;" xml:space="preserve">
<style type="text/css">
	.st0{fill:#EAEAEA;}
</style>
<g>
	<path class="st0" d="M93.1,32.2c-5.7,5.6-11.8,11.6-18,17.7c6.3,6.2,12.4,12.3,18.7,18.5C88,74,82.9,79.7,77,84.4
		C62.8,95.9,43,97,27.4,87.5C11.7,78,3.6,59.8,7,41.6C10.3,24.2,24.4,10,42,6.9c13.2-2.4,25.4,0.5,35.6,9.2
		C83.2,20.8,87.8,26.6,93.1,32.2z M80.2,31.3C61.4,8,37.2,13.6,25.4,25.5c-14.2,14.4-13.2,38.3,2.4,51.2
		C42,88.3,64.8,88.9,80.2,68.5c-3.9-3.9-7.8-7.8-12.4-12.4c-2.1,2.5-4,5.2-6.4,7.3c-5.4,4.9-13.3,5.6-19.8,2.2
		c-6.4-3.5-10.4-10.9-9.2-18c1.2-6.8,5-11.8,11.6-14.2c6.6-2.3,12.7-1.1,17.9,3.7c2.2,2,4.1,4.3,6,6.4
		C72.3,39.2,76.2,35.3,80.2,31.3z M62.1,50.4c-1.8-2-3-3.5-4.4-4.8c-1.4-1.2-2.8-2.5-4.5-3.3c-3.2-1.7-7.4-0.6-9.7,2.3
		c-2.5,3-2.5,7.7-0.1,10.8c2.3,2.9,6.7,4.3,9.7,2.4C56.3,55.7,59.1,52.9,62.1,50.4z"/>
</g>
</svg>
